<svg width="256" height="256" viewBox="0 0 256 256" fill="none" xmlns="http://www.w3.org/2000/svg">
  <defs>
    <linearGradient id="bg" x1="24" y1="24" x2="232" y2="232" gradientUnits="userSpaceOnUse">
      <stop stop-color="#16A34A"/>
      <stop offset="1" stop-color="#15803D"/>
    </linearGradient>
    <linearGradient id="leaf" x1="78" y1="54" x2="184" y2="192" gradientUnits="userSpaceOnUse">
      <stop stop-color="#DCFCE7"/>
      <stop offset="1" stop-color="#86EFAC"/>
    </linearGradient>
  </defs>

  <rect x="20" y="20" width="216" height="216" rx="52" fill="url(#bg)"/>
  <path d="M128 56C163 72 186 108 186 144C186 176 162 200 130 200C98 200 70 176 70 144C70 106 91 74 128 56Z" fill="url(#leaf)"/>
  <path d="M128 78V188" stroke="#166534" stroke-width="10" stroke-linecap="round"/>
  <path d="M128 124C114 112 99 106 84 104" stroke="#166534" stroke-width="8" stroke-linecap="round"/>
  <path d="M128 142C142 130 157 124 172 122" stroke="#166534" stroke-width="8" stroke-linecap="round"/>
</svg>
